<svg xmlns="http://www.w3.org/2000/svg" viewBox="0 0 64 64">
  <rect width="64" height="64" rx="14" fill="#5746af"/>
  <path d="M22 18c-3.3 0-6 2.7-6 6 0 1.2.3 2.3.9 3.2-1.7 1.1-2.9 3-2.9 5.3 0 2.4 1.3 4.5 3.3 5.6-.2.7-.3 1.4-.3 2.1 0 3.9 3.1 7 7 7 1.5 0 2.8-.4 4-1.2V20.2c-1.2-.8-2.5-1.2-4-1.2-.7-.6-1.6-1-2-1zm20 0c-1.4 0-2.7.5-3.8 1.3-1.2-.8-2.6-1.3-4.2-1.3v25.8c1.2.8 2.5 1.2 4 1.2 3.9 0 7-3.1 7-7 0-.7-.1-1.4-.3-2.1 2-1.1 3.3-3.2 3.3-5.6 0-2.3-1.2-4.2-2.9-5.3.6-.9.9-2 .9-3.2 0-3.3-2.7-6-6-6z" fill="#fafaf7" opacity="0.95"/>
</svg>
